<svg width="177" height="43" viewBox="0 0 177 43" fill="none" xmlns="http://www.w3.org/2000/svg">
<path fill-rule="evenodd" clip-rule="evenodd" d="M127.784 10.4038C128.744 10.4038 129.705 10.5031 130.666 10.7019L129.506 13.8817C128.976 13.8154 128.413 13.7823 127.85 13.7823C126.426 13.7823 125.068 14.0142 123.776 14.4779L123.246 11.0994C124.67 10.6356 126.194 10.4038 127.784 10.4038ZM125.995 31.5363C125.498 30.6751 125.101 29.7807 124.803 28.8864L128.148 28.2902C128.347 28.7871 128.579 29.2839 128.877 29.7476C129.572 31.0063 130.467 32.0662 131.494 32.9274L128.877 35.0804C127.751 34.0867 126.79 32.8943 125.995 31.5363ZM153.255 25.9385C153.156 26.6672 153.024 27.3628 152.858 28.0583L151.401 27.429C151.566 26.8328 151.732 26.2366 151.831 25.6404L153.255 25.9385ZM151.268 31.735C150.837 32.4968 150.307 33.1924 149.711 33.8549L148.32 32.3643C148.85 31.8675 149.314 31.3044 149.744 30.7082L151.268 31.735ZM147.161 36.1404C146.796 36.4053 146.432 36.6703 146.035 36.9022C145.339 37.2997 144.61 37.6309 143.882 37.8959L143.219 35.4117C144.08 35.1467 144.975 34.7823 145.803 34.2855C145.935 34.2192 146.035 34.153 146.167 34.0867L147.161 36.1404ZM141.232 38.6246C139.708 38.8896 138.151 38.9227 136.628 38.6908L137.588 35.776C138.814 36.0079 140.106 36.0079 141.397 35.8423L141.232 38.6246ZM134.972 38.3596L136.23 35.4779C134.806 35.0804 133.448 34.418 132.255 33.5236L129.97 35.9747C131.46 37.1009 133.183 37.8959 134.972 38.3596ZM118.973 36.8028C118.41 36.3722 117.847 35.9085 117.35 35.3785L118.609 34.4511C119.039 34.9148 119.47 35.3454 119.967 35.7429L118.973 36.8028ZM114.932 32.1987C114.535 31.4369 114.17 30.6088 113.872 29.7807L115.86 29.317C116.058 30.0126 116.29 30.7082 116.588 31.3706L114.932 32.1987ZM113.177 26.4353C113.11 25.9716 113.11 25.541 113.11 25.0773C113.11 24.2492 113.177 23.4874 113.309 22.6924L115.793 23.3549C115.561 24.2492 115.462 25.2098 115.462 26.1703V26.5678L113.177 26.4353ZM114.005 20.0426C114.535 18.5852 115.296 17.2271 116.224 16.0347L118.278 18.2871C117.483 19.2807 116.82 20.3738 116.323 21.5994L114.005 20.0426ZM117.35 14.7429L119.205 17.2934C120.265 16.2666 121.524 15.4054 122.882 14.8091L121.921 11.6293C120.199 12.358 118.642 13.418 117.35 14.7429ZM145.173 22.4937C144.677 23.3549 144.113 24.1498 143.484 24.8454L141.298 22.2618C141.629 21.8312 141.927 21.3675 142.192 20.9038C142.921 19.6451 143.385 18.3533 143.65 17.0284L146.83 18.2208C146.498 19.7113 145.968 21.1356 145.173 22.4937ZM126.724 1.69243C127.386 1.39432 128.049 1.16246 128.744 0.996845L128.91 2.55363C128.314 2.68612 127.718 2.85173 127.155 3.08359L126.724 1.69243ZM132.719 0.5C133.58 0.5 134.475 0.599369 135.336 0.764984L134.74 2.71924C134.044 2.5205 133.315 2.42113 132.587 2.35489L132.719 0.5ZM138.582 1.82492C139.013 2.02366 139.41 2.2224 139.807 2.45426C140.503 2.85173 141.166 3.31546 141.762 3.8123L139.94 5.63407C139.278 5.00473 138.516 4.44164 137.654 3.94479C137.555 3.87855 137.423 3.8123 137.323 3.74605L138.582 1.82492ZM143.716 5.73344C144.71 6.92586 145.505 8.28391 146.068 9.67507L143.087 10.3375C142.623 9.14511 141.994 8.01892 141.199 6.99211L143.716 5.73344ZM146.631 11.2981C147.095 13.0867 147.26 14.9748 147.028 16.8296L143.782 16.0678C143.948 14.5773 143.848 13.0867 143.484 11.6625L146.631 11.2981Z" fill="#B8D344"/>
<path fill-rule="evenodd" clip-rule="evenodd" d="M120.795 20.44C121.292 19.612 121.855 18.817 122.484 18.0883L124.67 20.6719C124.339 21.1025 124.041 21.5662 123.743 22.0631C123.047 23.2886 122.55 24.6135 122.319 25.9385L119.139 24.7129C119.47 23.2555 120 21.7981 120.795 20.44ZM139.973 11.4306C140.47 12.2918 140.834 13.153 141.166 14.0804L137.82 14.6766C137.621 14.1798 137.356 13.6829 137.091 13.1861C136.363 11.9605 135.468 10.9006 134.442 10.0063L137.091 7.88641C138.184 8.8801 139.178 10.0725 139.973 11.4306ZM112.713 16.9952C112.779 16.2997 112.912 15.6041 113.11 14.9085L114.568 15.5378C114.369 16.1009 114.237 16.6971 114.137 17.3265L112.713 16.9952ZM114.7 11.1987C115.131 10.47 115.661 9.7413 116.224 9.07884L117.615 10.5694C117.118 11.0993 116.621 11.6624 116.224 12.2255L114.7 11.1987ZM118.774 6.79335C119.139 6.52837 119.536 6.29651 119.934 6.06465C120.629 5.66717 121.325 5.30282 122.054 5.03783L122.749 7.52206C121.855 7.78704 120.994 8.1514 120.132 8.64824C120.033 8.71449 119.901 8.78074 119.801 8.84698L118.774 6.79335ZM124.737 4.30913C126.26 4.04414 127.817 4.01102 129.341 4.24288L128.38 7.15771C127.121 6.95897 125.83 6.92585 124.571 7.12458L124.737 4.30913ZM130.997 4.57411L129.738 7.45581C131.162 7.85329 132.487 8.51575 133.713 9.41007L135.998 6.95897C134.475 5.86591 132.785 5.03783 130.997 4.57411ZM138.184 32.5299C137.191 32.5299 136.23 32.4306 135.303 32.2649L136.462 29.052C136.992 29.1183 137.555 29.1845 138.085 29.1845C139.543 29.1845 140.901 28.9195 142.192 28.4889L142.689 31.8344C141.265 32.2981 139.774 32.5299 138.184 32.5299ZM146.995 6.16402C147.558 6.59462 148.088 7.05834 148.585 7.55518L147.326 8.51575C146.929 8.05203 146.465 7.62143 146.002 7.22395L146.995 6.16402ZM151.003 10.7681C151.434 11.5299 151.798 12.3249 152.096 13.153L150.109 13.6167C149.91 12.9211 149.645 12.2255 149.347 11.5631L151.003 10.7681ZM152.792 16.5315C152.825 16.9621 152.858 17.4258 152.858 17.8896C152.858 18.6845 152.792 19.4795 152.659 20.2413L150.175 19.5788C150.374 18.6845 150.506 17.7571 150.506 16.7634C150.506 16.6309 150.506 16.4984 150.473 16.3659L152.792 16.5315ZM151.964 22.9243C151.434 24.3817 150.672 25.7397 149.744 26.9321L147.658 24.6467C148.486 23.653 149.148 22.5599 149.612 21.3675L151.964 22.9243ZM148.585 28.1908L146.73 25.6735C145.67 26.7003 144.445 27.5284 143.054 28.1246L144.047 31.3375C145.77 30.5757 147.293 29.5157 148.585 28.1908ZM139.244 41.2744C138.582 41.5394 137.919 41.7713 137.224 41.97L137.025 40.3801C137.621 40.2807 138.218 40.082 138.814 39.8832L139.244 41.2744ZM133.249 42.4337C132.355 42.4337 131.494 42.3343 130.632 42.1687L131.229 40.2145C131.924 40.4132 132.653 40.5457 133.349 40.6119L133.249 42.4337ZM127.353 41.1088C126.956 40.9101 126.558 40.7113 126.161 40.4795C125.465 40.082 124.803 39.6183 124.207 39.1214L125.995 37.2996C126.691 37.929 127.453 38.5252 128.281 38.9889C128.413 39.0552 128.513 39.1214 128.645 39.1877L127.353 41.1088ZM122.252 37.2003C121.226 36.0078 120.464 34.6829 119.867 33.2586L122.882 32.5962C123.312 33.7886 123.942 34.9148 124.77 35.9416L122.252 37.2003ZM119.337 31.6356C118.841 29.847 118.708 27.9921 118.907 26.1041L122.153 26.8659C121.987 28.3564 122.12 29.847 122.484 31.3044L119.337 31.6356Z" fill="#34A853"/>
<path d="M0.492188 2.5V32.2113H9.23666C18.7761 32.2113 24.9038 26.6467 24.9038 17.3722C24.9038 8.06467 18.7761 2.5 9.23666 2.5H0.492188ZM9.23666 8.79337C14.1057 8.79337 17.3518 11.6751 17.3518 17.3722C17.3518 23.0363 14.1057 25.9511 9.23666 25.9511H7.74613V8.79337H9.23666ZM47.2619 22.9369C47.295 22.4069 47.295 21.9432 47.295 21.5126C47.295 13.9274 43.4527 9.38959 36.3644 9.38959C29.8061 9.38959 25.4007 14.5899 25.4007 21.1483C25.4007 27.7066 29.9054 32.7744 37.2587 32.7744C43.0221 32.7744 46.0694 29.164 46.7319 27.8391L42.0616 24.2287C41.631 24.8912 40.0411 26.6136 37.3912 26.6136C34.7414 26.6136 32.8202 24.9243 32.6546 22.9369H47.2619ZM36.4969 15.1199C38.683 15.1199 40.0079 16.6435 40.1073 18.4322H32.8865C33.0521 16.8423 34.1452 15.1199 36.4969 15.1199ZM59.9811 26.5473C56.7351 26.5473 54.5158 24.3281 54.5158 21.0489C54.5158 18.1009 56.3707 15.7492 59.7493 15.7492C61.4054 15.7492 62.9622 16.3785 64.1877 17.4054L66.1089 11.4101C64.5521 10.317 62.366 9.38959 59.4843 9.38959C52.5947 9.38959 47.4275 14.2587 47.4275 21.1151C47.4275 27.9385 52.4291 32.7744 59.5174 32.7744C62.3328 32.7744 64.5852 31.8139 66.0757 30.7871L64.1877 24.9574C63.2272 25.7855 61.6373 26.5473 59.9811 26.5473ZM66.142 25.2886C66.142 30.1577 70.0505 32.7744 74.4227 32.7744C76.7082 32.7744 78.3313 32.1451 79.4574 30.9858L79.8549 32.2113H86.1814V18.4322C86.1814 13.3312 84.2272 9.38959 76.5426 9.38959C72.8328 9.38959 69.8186 10.582 67.4669 12.1388L70.0836 16.9085C71.8391 16.0473 73.7272 15.4842 75.6814 15.4842C78 15.4842 79.0931 16.5442 79.0931 17.9022V18.7303C78.2981 18.3659 76.7414 17.9022 74.7871 17.9022C69.5205 17.9022 66.142 20.8501 66.142 25.2886ZM73.2303 25.0568C73.2303 23.5994 74.489 22.6719 76.2114 22.6719C77.9007 22.6719 79.2256 23.5331 79.2256 25.0568C79.2256 26.5473 77.9338 27.3423 76.2445 27.3423C74.5884 27.3423 73.2303 26.5473 73.2303 25.0568ZM103.737 31.0852C103.737 33.8012 101.12 34.3975 98.47 34.3975C95.4559 34.3975 92.9716 33.3375 92.3092 33.0394L90.2555 38.4716C92.2429 39.4984 95.3234 40.3596 98.47 40.3596C105.095 40.3596 110.825 37.776 110.825 29.5615V9.91955H104.2V11.6751C103.571 10.9464 101.451 9.38959 98.1719 9.38959C91.7792 9.38959 87.2745 14.2255 87.2745 21.0489C87.2745 27.9716 91.3486 32.7744 97.8076 32.7744C101.186 32.7744 103.273 31.0852 103.737 30.5221V31.0852ZM103.968 21.0158C103.968 24.5268 101.948 26.5473 99.1656 26.5473C96.2839 26.5473 94.3628 24.2949 94.3628 21.0158C94.3628 17.7035 96.2839 15.6167 99.1325 15.6167C102.18 15.6167 103.968 18.0347 103.968 21.0158ZM169.42 32.2113H176.508V19.8565C176.508 15.3186 175.845 9.38959 168.856 9.38959C166.074 9.38959 164.12 10.9132 163.259 12.2382V9.91955H156.336V32.2113H163.424V18.929C163.424 17.1404 164.55 15.7492 166.505 15.7492C168.194 15.7492 169.42 16.8423 169.42 18.929V32.2113Z" fill="#101828"/>
</svg>
