<svg width="84" height="24" viewBox="0 0 84 24" fill="none" xmlns="http://www.w3.org/2000/svg">
<g clip-path="url(#clip0_1_804)">
<path d="M83.0715 4.41016C82.7772 4.06722 82.385 3.89553 81.854 3.89553C81.3232 3.89553 80.9187 4.07857 80.635 4.45547C80.3537 4.8199 80.207 5.36685 80.207 6.08592V11.2875C79.5537 10.557 78.8761 10.0324 78.1896 9.67842C77.7592 9.46271 77.2534 9.30358 76.6893 9.22259C76.3609 9.1772 76.0238 9.15373 75.6525 9.15373C73.9261 9.15373 72.5295 9.76998 71.4571 11.0016C70.397 12.2341 69.8677 13.9451 69.8677 16.1452C69.8677 17.1846 70.0031 18.1534 70.2721 19.0438C70.5437 19.9334 70.9246 20.7082 71.4458 21.3707C71.9646 22.0323 72.5839 22.5326 73.2947 22.8996C74.0047 23.2521 74.7715 23.4334 75.6064 23.4334C75.9906 23.4334 76.3497 23.4008 76.6893 23.3328C76.9145 23.2967 77.1286 23.2404 77.3433 23.1716C77.8726 22.9902 78.3687 22.7282 78.8201 22.3975C79.2822 22.0541 79.7458 21.61 80.207 21.0735V21.416C80.207 22.0667 80.3651 22.5561 80.669 22.9096C80.9851 23.2521 81.3799 23.4334 81.854 23.4334C82.3388 23.4334 82.7335 23.2639 83.0375 22.9331C83.3414 22.5906 83.4999 22.0894 83.4999 21.416V5.90374C83.4999 5.25311 83.3528 4.75104 83.0715 4.41016ZM79.5642 18.7587C79.2587 19.4204 78.8543 19.9107 78.359 20.2297C77.8508 20.5496 77.2972 20.7082 76.6893 20.7082H76.6787C76.0692 20.7082 75.5164 20.5378 75.0082 20.207C74.5016 19.8654 74.0947 19.3624 73.802 18.7013C73.5095 18.0279 73.3627 17.2186 73.3627 16.2603C73.3627 15.3593 73.4973 14.5609 73.7794 13.888C74.0509 13.2038 74.4449 12.6782 74.9417 12.3134C75.4491 11.9365 76.0132 11.7661 76.656 11.7661H76.6893C77.2866 11.7661 77.8386 11.9487 78.3468 12.3017C78.8543 12.6551 79.2587 13.1698 79.5642 13.8423C79.869 14.5152 80.0149 15.3249 80.0149 16.2603C80.0149 17.2635 79.869 18.0972 79.5642 18.7587Z" fill="#003A9B"/>
<path d="M68.7945 18.907C68.5822 18.713 68.2879 18.6102 67.9264 18.6102C67.5998 18.6102 67.3518 18.69 67.171 18.8381C66.7317 19.2491 66.3823 19.5782 66.1108 19.8191C65.8408 20.0475 65.5362 20.2759 65.2086 20.4917C64.8942 20.6966 64.5553 20.8577 64.2189 20.9492C63.868 21.0508 63.4952 21.0962 63.0785 21.0962C62.9877 21.0962 62.897 21.0962 62.8192 21.0844C62.3004 21.0508 61.8157 20.9013 61.3764 20.6277C60.856 20.3196 60.4507 19.8654 60.1346 19.2717C59.8299 18.6555 59.6735 17.9491 59.6621 17.151H66.4609C67.3736 17.151 68.0837 17.0129 68.5822 16.7614C69.0887 16.4881 69.3368 15.9181 69.3368 15.04C69.3368 14.0815 69.0887 13.1458 68.604 12.2232C68.1185 11.3097 67.3971 10.557 66.4164 9.97562C65.4445 9.39471 64.2839 9.10877 62.9205 9.10877H62.8192C61.8157 9.11969 60.8901 9.2918 60.0674 9.61084C59.2106 9.95301 58.4884 10.4433 57.8902 11.0705C57.3163 11.709 56.8649 12.4734 56.561 13.3629C56.257 14.2537 56.0981 15.2225 56.0981 16.2598C56.0981 18.4737 56.719 20.207 57.9592 21.4957C59.1304 22.7165 60.7555 23.3554 62.8192 23.4226C62.9319 23.4334 63.055 23.4334 63.1799 23.4334C64.1493 23.4334 65.0182 23.3092 65.7728 23.0473C66.529 22.7845 67.1483 22.4638 67.6468 22.0776C68.1404 21.678 68.5133 21.2683 68.7596 20.8451C69.0093 20.4237 69.1333 20.0475 69.1333 19.7386C69.1333 19.3859 69.0215 19.1005 68.7945 18.907ZM60.6769 12.462C61.228 11.8575 61.9397 11.5612 62.807 11.5612H62.8192C63.7205 11.5612 64.454 11.8575 65.006 12.4503C65.5605 13.0439 65.8855 13.9451 65.9657 15.1537H59.6621C59.774 13.9678 60.1128 13.0657 60.6769 12.462Z" fill="#003A9B"/>
<path d="M54.0119 18.6102C53.6739 18.6102 53.4251 18.69 53.2459 18.8381C52.8164 19.2491 52.4565 19.579 52.1849 19.8191C51.915 20.0475 51.6216 20.2759 51.2942 20.4917C50.9683 20.6966 50.64 20.8577 50.2907 20.9492C49.9519 21.0508 49.5685 21.0962 49.1518 21.0962C49.0619 21.0962 48.9719 21.0962 48.8933 21.0844C48.3737 21.0508 47.8883 20.9013 47.4489 20.6277C46.9423 20.3196 46.5241 19.8654 46.2209 19.2717C45.904 18.6555 45.7459 17.9491 45.735 17.151H52.5456C53.4486 17.151 54.1586 17.0129 54.666 16.7614C55.1629 16.4881 55.4101 15.9181 55.4101 15.04C55.4101 14.0815 55.1734 13.1458 54.6887 12.2232C54.2032 11.3097 53.4705 10.557 52.5026 9.97562C51.5292 9.39471 50.3587 9.10877 49.0068 9.10877H48.8933C47.8882 9.11969 46.9748 9.2918 46.1415 9.61084C45.2835 9.95301 44.5621 10.4433 43.9757 11.0705C43.3893 11.709 42.9378 12.4734 42.6347 13.3629C42.3291 14.2537 42.1719 15.2225 42.1719 16.2603C42.1719 18.4737 42.8033 20.207 44.045 21.4957C45.2158 22.7165 46.8297 23.3554 48.8933 23.4226C49.0165 23.4334 49.1292 23.4334 49.254 23.4334C50.2339 23.4334 51.0923 23.3092 51.8453 23.0473C52.6016 22.7845 53.2224 22.4638 53.7177 22.0776C54.225 21.678 54.5858 21.2683 54.8346 20.8451C55.0834 20.4237 55.2066 20.0475 55.2066 19.7386C55.2066 19.3859 55.0948 19.1005 54.8808 18.907C54.6555 18.713 54.3613 18.6102 54.0119 18.6102ZM46.7507 12.462C47.3018 11.8575 48.0114 11.5612 48.8812 11.5612H48.8933C49.7946 11.5612 50.5274 11.8575 51.0809 12.4503C51.6435 13.0439 51.9596 13.9451 52.0504 15.1537H45.735C45.8598 13.9678 46.1982 13.0657 46.7507 12.462Z" fill="#003A9B"/>
<path d="M7.74414 21.0962V12.7021C7.98082 12.7235 8.20654 12.7349 8.44322 12.7349C9.57066 12.7349 10.6321 12.4272 11.533 11.8798V21.0962C11.533 21.8828 11.3523 22.4646 11.0033 22.8533C10.6548 23.2404 10.1912 23.4334 9.62744 23.4334C9.07466 23.4334 8.63493 23.2404 8.27342 22.8416C7.92489 22.4537 7.74414 21.8711 7.74414 21.0962Z" fill="#003A9B"/>
<path d="M40.5027 4.41016C40.2085 4.06722 39.804 3.89553 39.2958 3.89553C38.7661 3.89553 38.3592 4.07857 38.0776 4.45547C37.7862 4.8199 37.6491 5.36685 37.6491 6.08592V11.2875C36.9951 10.557 36.3187 10.0324 35.6305 9.67842C35.192 9.46271 34.6948 9.30358 34.1318 9.22259C33.8052 9.1772 33.4664 9.15373 33.0947 9.15373C31.3683 9.15373 29.9591 9.76998 28.8997 11.0016C27.8395 12.2341 27.3086 13.9451 27.3086 16.1452C27.3086 17.1846 27.4452 18.1534 27.7029 19.0438C27.9745 19.9334 28.3688 20.7082 28.8888 21.3707C29.4063 22.0323 30.0268 22.5326 30.7385 22.8996C31.4485 23.2521 32.2141 23.4334 33.0485 23.4334C33.4205 23.4334 33.7821 23.4008 34.1318 23.3328C34.3567 23.2967 34.5715 23.2404 34.7859 23.1716C35.3156 22.9902 35.8117 22.7282 36.2627 22.3975C36.7248 22.0541 37.1766 21.61 37.6491 21.0735V21.416C37.6491 22.0667 37.808 22.5561 38.112 22.9096C38.4167 23.2521 38.8224 23.4334 39.2958 23.4334C39.757 23.4334 40.1643 23.2639 40.4699 22.9331C40.7739 22.5906 40.9198 22.0894 40.9198 21.416V5.90374C40.9198 5.25311 40.7856 4.75104 40.5027 4.41016ZM37.006 18.7587C36.7024 19.4204 36.296 19.9107 35.7898 20.2297C35.2929 20.5496 34.7292 20.7082 34.1318 20.7082H34.1197C33.5126 20.7082 32.9586 20.5378 32.4515 20.207C31.9328 19.8654 31.538 19.3624 31.2442 18.7013C30.9516 18.0279 30.8049 17.2186 30.8049 16.2603C30.8049 15.3593 30.9415 14.5609 31.211 13.888C31.493 13.2038 31.8761 12.6782 32.3835 12.3134C32.8803 11.9365 33.4542 11.7661 34.0868 11.7661H34.1318C34.7292 11.7661 35.2816 11.9487 35.7773 12.3017C36.296 12.6551 36.7024 13.1698 37.006 13.8423C37.2986 14.5152 37.4583 15.3249 37.4583 16.2603C37.4583 17.2635 37.2986 18.0972 37.006 18.7587Z" fill="#003A9B"/>
<path d="M17.0922 11.0705V11.5045C17.7122 10.683 18.3781 10.0899 19.0999 9.70154C19.833 9.32584 20.6671 9.1306 21.6142 9.1306C22.5277 9.1306 23.3508 9.33633 24.073 9.73593C24.7947 10.1348 25.3244 10.7057 25.6856 11.4475C25.9226 11.8798 26.0694 12.3487 26.1362 12.8499C26.2043 13.3398 26.2375 13.9779 26.2375 14.7544V21.291C26.2375 21.9978 26.0694 22.5326 25.7524 22.8869C25.4375 23.2521 25.0188 23.4334 24.5115 23.4334C23.994 23.4334 23.5769 23.2521 23.249 22.8752C22.9216 22.51 22.7651 21.9752 22.7651 21.291V15.4379C22.7651 14.2755 22.6067 13.3855 22.2906 12.7697C21.9749 12.1543 21.3317 11.8458 20.3858 11.8458C19.7654 11.8458 19.2008 12.0406 18.693 12.4045C18.1868 12.7815 17.8026 13.2936 17.5651 13.9556C17.3965 14.4808 17.3167 15.4496 17.3167 16.8995V21.291C17.3167 22.0087 17.1497 22.5326 16.8223 22.8996C16.4947 23.2521 16.0782 23.4334 15.5586 23.4334C15.0524 23.4334 14.6447 23.2521 14.3181 22.8752C13.9914 22.51 13.8325 21.9752 13.8325 21.291V11.1271C13.8325 10.4551 13.9793 9.95301 14.2731 9.63354C14.5551 9.30358 14.949 9.1306 15.4577 9.1306C15.762 9.1306 16.0319 9.19861 16.2795 9.34888C16.5292 9.49581 16.731 9.71332 16.8777 10.0097C17.024 10.3051 17.0922 10.6599 17.0922 11.0705Z" fill="#003A9B"/>
<path d="M7.76618 0.976707C10.1119 0.120344 12.7847 0.166167 14.7916 1.92248C15.1649 2.276 15.5924 2.72099 15.7618 3.24567C15.9652 3.90722 15.0521 3.17646 14.927 3.08654C14.2733 2.65255 13.6187 2.28778 12.8868 2.03631C8.94027 0.805022 5.20605 3.02954 2.88464 6.4856C1.91523 8.014 1.28261 9.62133 0.764252 11.3891C0.708324 11.5838 0.662934 11.8353 0.560416 12.0045C0.459098 12.2 0.515836 11.4818 0.515836 11.4579C0.594037 10.7287 0.741557 10.0214 0.922309 9.31407C1.99304 5.54945 4.36065 2.41321 7.76618 0.976707Z" fill="#003A9B"/>
<path d="M10.8229 10.3174C9.41381 11.0473 7.68733 10.4781 6.9769 9.05211C6.2551 7.62566 6.81966 5.88104 8.22878 5.1624C9.63874 4.43242 11.3652 5.00207 12.0748 6.42851C12.7966 7.85444 12.2329 9.59906 10.8229 10.3174Z" fill="#003A9B"/>
</g>
<defs>
<clipPath id="clip0_1_804">
<rect width="83" height="23" fill="white" transform="translate(0.5 0.433716)"/>
</clipPath>
</defs>
</svg>
