<svg width="400" height="1024" viewBox="0 0 400 1024" fill="none" xmlns="http://www.w3.org/2000/svg">
<rect width="200" height="256" transform="matrix(-1 0 0 1 200 0)" fill="#B8D344"/>
<path d="M200 0C200 33.6184 194.827 66.9076 184.776 97.967C174.725 129.026 159.993 157.248 141.421 181.019C122.85 204.791 100.802 223.648 76.5367 236.513C52.2716 249.378 26.2644 256 0 256L1.52588e-05 0H200Z" fill="#4AAC63" fill-opacity="0.98"/>
<rect x="400" y="256" width="200" height="256" transform="rotate(180 400 256)" fill="#B8D344"/>
<rect x="400" y="256" width="200" height="128" transform="rotate(180 400 256)" fill="#4AAC63" fill-opacity="0.98"/>
<path d="M300 0C244.772 0 200 57.3076 200 128L400 128C400 57.3076 355.228 0 300 0Z" fill="#4AAC63" fill-opacity="0.98"/>
<rect width="200" height="256" transform="matrix(-1 0 0 1 200 256)" fill="#B8D344"/>
<rect width="200" height="128" transform="matrix(-1 0 0 1 200 256)" fill="#4AAC63" fill-opacity="0.98"/>
<path d="M100 512C44.7715 512 0 454.692 0 384H200C200 454.692 155.228 512 100 512Z" fill="#4AAC63" fill-opacity="0.98"/>
<rect x="400" y="512" width="200" height="256" transform="rotate(180 400 512)" fill="#B8D344"/>
<path d="M300 384C244.772 384 200 441.308 200 512H400C400 441.308 355.228 384 300 384Z" fill="#B8D344"/>
<rect width="200" height="256" transform="matrix(-1 0 0 1 200 512)" fill="#4AAC63" fill-opacity="0.98"/>
<path d="M-1.52588e-05 768C-1.52588e-05 734.382 5.17313 701.092 15.2241 670.033C25.275 638.974 40.0069 610.752 58.5786 586.981C77.1503 563.209 99.1982 544.352 123.463 531.487C147.728 518.622 173.736 512 200 512L200 768H-1.52588e-05Z" fill="#B8D344"/>
<rect x="400" y="768" width="200" height="256" transform="rotate(180 400 768)" fill="#B8D344"/>
<path d="M400 768C400 734.382 394.827 701.092 384.776 670.033C374.725 638.974 359.993 610.752 341.421 586.981C322.85 563.209 300.802 544.352 276.537 531.487C252.272 518.622 226.264 512 200 512L200 768H400Z" fill="#4AAC63" fill-opacity="0.98"/>
<rect width="200" height="256" transform="matrix(-1 0 0 1 200 768)" fill="#38A963"/>
<rect x="400" y="1024" width="200" height="256" transform="rotate(180 400 1024)" fill="#B8D344"/>
</svg>
