<svg width="84" height="18" viewBox="0 0 84 18" fill="none" xmlns="http://www.w3.org/2000/svg">
<g clip-path="url(#clip0_1_798)">
<path d="M29.7975 10.2252L29.3028 11.5694H29.2615C29.1791 11.2663 29.0279 10.805 28.7806 10.2515L26.1284 3.86007H23.5312V14.0469H25.249V7.76084C25.249 7.3655 25.249 6.91743 25.2352 6.36395C25.2215 6.0872 25.194 5.87635 25.1803 5.71821H25.2215C25.3039 6.11356 25.4001 6.40348 25.4688 6.58798L28.6569 14.0205H29.8662L33.0268 6.52208C33.0955 6.35077 33.1642 6.00813 33.2329 5.71821H33.2741C33.2329 6.46937 33.2054 7.14147 33.1917 7.54999V14.0074H35.0193V3.83371H32.5183L29.7975 10.2252ZM36.7508 6.70658H38.5372V14.0074H36.7508V6.70658ZM37.6577 3.62286C37.3554 3.62286 37.1081 3.72829 36.9019 3.91278C36.6958 4.09728 36.5859 4.33449 36.5859 4.62441C36.5859 4.90115 36.6958 5.13836 36.9019 5.32286C37.1081 5.50736 37.3554 5.5996 37.6577 5.5996C37.9601 5.5996 38.2211 5.49418 38.4135 5.32286C38.6197 5.13836 38.7296 4.90115 38.7296 4.62441C38.7296 4.34767 38.6197 4.11046 38.4135 3.91278C38.2349 3.72829 37.9738 3.62286 37.6577 3.62286ZM44.8721 6.64069C44.5423 6.5748 44.1988 6.53526 43.869 6.53526C43.0582 6.53526 42.3162 6.70658 41.6978 7.04922C41.0794 7.39185 40.5847 7.86627 40.2687 8.45929C39.9389 9.0655 39.774 9.76395 39.774 10.5678C39.774 11.2663 39.9389 11.8857 40.2549 12.4523C40.571 13.0058 41.0107 13.4539 41.6016 13.757C42.165 14.0601 42.8246 14.2182 43.5667 14.2182C44.4187 14.2182 45.147 14.0469 45.7241 13.7306L45.7379 13.7174V12.136L45.6692 12.1888C45.4081 12.3732 45.1058 12.5314 44.8034 12.6236C44.4874 12.7291 44.1988 12.7818 43.9514 12.7818C43.2369 12.7818 42.6735 12.5841 42.275 12.1492C41.8627 11.7275 41.6566 11.1477 41.6566 10.4229C41.6566 9.6717 41.8627 9.07867 42.2887 8.64379C42.7147 8.20891 43.2781 7.98488 43.9652 7.98488C44.5423 7.98488 45.1332 8.16937 45.6692 8.53836L45.7379 8.59108V6.91743L45.7241 6.90426C45.4905 6.81201 45.2294 6.70658 44.8721 6.64069ZM50.7673 6.58798C50.3276 6.58798 49.9154 6.71976 49.5581 6.9965C49.2558 7.23371 49.0496 7.57635 48.871 7.98488H48.8572V6.70658H47.0708V14.0074H48.8572V10.2779C48.8572 9.64534 48.9947 9.11821 49.297 8.73604C49.5993 8.34069 49.9841 8.14302 50.4513 8.14302C50.6162 8.14302 50.7811 8.18255 50.9872 8.20891C51.1796 8.26162 51.317 8.31433 51.4132 8.38022L51.4819 8.43294V6.71976L51.4407 6.70658C51.317 6.62751 51.0697 6.58798 50.7673 6.58798ZM55.6319 6.54844C54.3814 6.54844 53.3783 6.90426 52.6774 7.60271C51.9629 8.30116 51.6193 9.26317 51.6193 10.4756C51.6193 11.6089 51.9766 12.5314 52.6637 13.2035C53.3508 13.8624 54.2852 14.205 55.4533 14.205C56.6763 14.205 57.6519 13.8492 58.3528 13.1376C59.0673 12.426 59.4109 11.4771 59.4109 10.3043C59.4109 9.14457 59.0811 8.22209 58.4077 7.54999C57.7619 6.8779 56.8137 6.54844 55.6319 6.54844ZM57.0611 12.1624C56.7312 12.5709 56.2091 12.7686 55.5632 12.7686C54.9173 12.7686 54.3952 12.5709 54.0241 12.136C53.6531 11.7275 53.4745 11.1345 53.4745 10.3833C53.4745 9.60581 53.6668 9.01278 54.0241 8.59108C54.3952 8.16937 54.9036 7.95852 55.5495 7.95852C56.1816 7.95852 56.6763 8.15619 57.0336 8.56472C57.3909 8.97325 57.5832 9.56627 57.5832 10.3438C57.5558 11.1345 57.4046 11.7539 57.0611 12.1624ZM63.396 9.73759C62.8326 9.51356 62.4753 9.34224 62.3104 9.19728C62.173 9.0655 62.1043 8.881 62.1043 8.64379C62.1043 8.44612 62.1867 8.24844 62.3928 8.11666C62.599 7.98488 62.8326 7.91898 63.1761 7.91898C63.4784 7.91898 63.7945 7.9717 64.0968 8.05077C64.3991 8.12984 64.674 8.24844 64.8938 8.40658L64.9625 8.45929V6.85154L64.9213 6.83836C64.7152 6.75929 64.4404 6.68022 64.1105 6.61433C63.7808 6.56162 63.4784 6.53526 63.2311 6.53526C62.3791 6.53526 61.6783 6.73294 61.1286 7.16782C60.5789 7.57635 60.3178 8.12984 60.3178 8.77557C60.3178 9.11821 60.3728 9.42131 60.4965 9.6717C60.6202 9.92209 60.7988 10.1593 61.0462 10.357C61.2935 10.5415 61.6508 10.7523 62.1455 10.95C62.5577 11.1213 62.8738 11.2531 63.0662 11.3585C63.2586 11.4639 63.3822 11.5826 63.4784 11.6748C63.5471 11.7802 63.5884 11.912 63.5884 12.0833C63.5884 12.5709 63.2036 12.8081 62.4203 12.8081C62.118 12.8081 61.8019 12.7554 61.4309 12.6368C61.0599 12.5182 60.7163 12.3469 60.4278 12.1492L60.3591 12.0965V13.7701L60.4003 13.7833C60.6614 13.9019 60.9774 13.981 61.3622 14.0732C61.747 14.1391 62.0905 14.1919 62.3928 14.1919C63.3135 14.1919 64.0693 13.9942 64.6053 13.5593C65.1549 13.1376 65.4435 12.5973 65.4435 11.8988C65.4435 11.4112 65.3061 10.9763 65.0038 10.6469C64.6053 10.3306 64.1106 10.0012 63.396 9.73759ZM70.1569 6.54844C68.9064 6.54844 67.9033 6.90426 67.2024 7.60271C66.5016 8.30116 66.1443 9.26317 66.1443 10.4756C66.1443 11.6089 66.5016 12.5314 67.1887 13.2035C67.8758 13.8624 68.8102 14.205 69.9783 14.205C71.2013 14.205 72.1769 13.8492 72.8778 13.1376C73.5923 12.426 73.9359 11.4771 73.9359 10.3043C73.9359 9.14457 73.6061 8.22209 72.9327 7.54999C72.2869 6.8779 71.3387 6.54844 70.1569 6.54844ZM71.5723 12.1624C71.2425 12.5709 70.7203 12.7686 70.0745 12.7686C69.4149 12.7686 68.9064 12.5709 68.5354 12.136C68.1644 11.7275 67.9857 11.1345 67.9857 10.3833C67.9857 9.60581 68.1781 9.01278 68.5354 8.59108C68.9064 8.16937 69.4149 7.95852 70.0607 7.95852C70.6791 7.95852 71.1875 8.15619 71.5448 8.56472C71.9021 8.97325 72.0945 9.56627 72.0945 10.3438C72.0945 11.1345 71.9159 11.7539 71.5723 12.1624ZM83.4864 8.11666V6.70658H81.6862V4.54534L81.6312 4.55852L79.9273 5.04612L79.8861 5.05929V6.70658H77.1927V5.7841C77.1927 5.36239 77.3026 5.03294 77.495 4.82208C77.6874 4.61123 77.976 4.50581 78.3332 4.50581C78.5806 4.50581 78.8417 4.55852 79.1303 4.67712L79.199 4.71666V3.22751L79.1577 3.21433C78.9104 3.13526 78.5806 3.08255 78.1546 3.08255C77.6187 3.08255 77.1514 3.20115 76.7255 3.39883C76.2995 3.62286 75.9834 3.92596 75.7498 4.33449C75.5162 4.72984 75.3925 5.1779 75.3925 5.69185V6.70658H74.142V8.10348H75.3925V14.0074H77.1927V8.11666H79.8861V11.8725C79.8861 13.4143 80.6418 14.1919 82.1534 14.1919C82.4008 14.1919 82.6619 14.1523 82.9092 14.1128C83.1703 14.0601 83.3627 13.9942 83.4726 13.9415L83.4864 13.9283V12.5182L83.4177 12.5709C83.3077 12.6368 83.2115 12.6895 83.0466 12.7291C82.9092 12.7686 82.7855 12.7818 82.6894 12.7818C82.3321 12.7818 82.0847 12.7027 81.9061 12.505C81.7412 12.3205 81.6587 12.0174 81.6587 11.5694V8.11666H83.4864Z" fill="#737373"/>
<path d="M0.5 0.433716H8.92368V8.51201H0.5V0.433716Z" fill="#F25022"/>
<path d="M9.80322 0.433716H18.2269V8.51201H9.80322V0.433716Z" fill="#7FBA00"/>
<path d="M0.5 9.35542H8.92368V17.4337H0.5V9.35542Z" fill="#00A4EF"/>
<path d="M9.80322 9.35542H18.2269V17.4337H9.80322V9.35542Z" fill="#FFB900"/>
</g>
<defs>
<clipPath id="clip0_1_798">
<rect width="83" height="17" fill="white" transform="translate(0.5 0.433716)"/>
</clipPath>
</defs>
</svg>
