<svg width="20" height="20" viewBox="0 0 20 20" fill="none" xmlns="http://www.w3.org/2000/svg">
<path opacity="0.4" d="M13.5333 1.66667H6.46665C4.16665 1.66667 3.33331 2.5 3.33331 4.84167V15.1583C3.33331 17.5 4.16665 18.3333 6.46665 18.3333H13.525C15.8333 18.3333 16.6666 17.5 16.6666 15.1583V4.84167C16.6666 2.5 15.8333 1.66667 13.5333 1.66667Z" fill="#292D32"/>
<path d="M11.6666 5.20833H8.33331C7.99165 5.20833 7.70831 4.925 7.70831 4.58333C7.70831 4.24167 7.99165 3.95833 8.33331 3.95833H11.6666C12.0083 3.95833 12.2916 4.24167 12.2916 4.58333C12.2916 4.925 12.0083 5.20833 11.6666 5.20833Z" fill="#292D32"/>
<path d="M10 16.0833C10.8054 16.0833 11.4584 15.4304 11.4584 14.625C11.4584 13.8196 10.8054 13.1667 10 13.1667C9.1946 13.1667 8.54169 13.8196 8.54169 14.625C8.54169 15.4304 9.1946 16.0833 10 16.0833Z" fill="#292D32"/>
</svg>
